<svg xmlns="http://www.w3.org/2000/svg" viewBox="0 0 24 24"><path d="M16.18,14.17l-1.61-.93V11.39a.71.71,0,0,0-.35-.61l-1.76-1a.7.7,0,0,0-.7,0l-1.75,1a.69.69,0,0,0-.35.61v1.85l-1.6.93a.69.69,0,0,0-.36.61v2a.71.71,0,0,0,.35.61l1.76,1a.66.66,0,0,0,.7,0l1.6-.92,1.61.92a.66.66,0,0,0,.7,0l1.76-1a.73.73,0,0,0,.35-.61v-2A.7.7,0,0,0,16.18,14.17Zm-4.07-3.45,1.46.84v1.68l-1.46.84-1.45-.84V11.56Zm-1.95,6.75L8.7,16.63V15l1.46-.84,1.45.84v1.68Zm5.37-.84-1.46.84-1.46-.84V15l1.46-.84,1.46.84Z" fill="#cb804f"/><path d="M18.18,5.3h.62a1.11,1.11,0,0,0,1.12-1.11v-3A1.12,1.12,0,0,0,18.8.11H5.2A1.12,1.12,0,0,0,4.08,1.23v3A1.11,1.11,0,0,0,5.2,5.3h.62c-7.45,11.17-2.69,16.63-1,18.06a2.22,2.22,0,0,0,1.44.53H17.76a2.22,2.22,0,0,0,1.44-.53C20.87,21.93,25.63,16.47,18.18,5.3ZM5.08,4.19v-3a.12.12,0,0,1,.12-.12H18.8a.12.12,0,0,1,.12.12v3a.11.11,0,0,1-.12.11H5.2A.11.11,0,0,1,5.08,4.19ZM18.55,22.6a1.2,1.2,0,0,1-.79.29H6.24a1.2,1.2,0,0,1-.79-.29C3.91,21.29-.5,16.17,7,5.3H17C24.5,16.17,20.09,21.29,18.55,22.6Z" fill="#cb804f"/></svg>