<svg xmlns="http://www.w3.org/2000/svg" width="30" height="30" viewBox="0 0 30 30">
  <g id="Group_15" data-name="Group 15" transform="translate(-1103 -2904)">
    <circle id="Ellipse_2" data-name="Ellipse 2" cx="15" cy="15" r="15" transform="translate(1103 2904)" fill="rgba(6,23,39,0.5)"/>
    <g id="instagram" transform="translate(1110.5 2911.5)">
      <path id="Path_3" data-name="Path 3" d="M15.457,4.424a5.5,5.5,0,0,0-.35-1.826,3.855,3.855,0,0,0-2.2-2.2A5.513,5.513,0,0,0,11.08.047C10.274.009,10.018,0,7.975,0s-2.3.009-3.1.044a5.5,5.5,0,0,0-1.826.35,3.672,3.672,0,0,0-1.335.87A3.705,3.705,0,0,0,.846,2.6,5.514,5.514,0,0,0,.5,4.421c-.038.806-.047,1.061-.047,3.1s.009,2.3.044,3.1a5.5,5.5,0,0,0,.35,1.826,3.854,3.854,0,0,0,2.2,2.2A5.514,5.514,0,0,0,4.871,15c.8.035,1.058.044,3.1.044s2.3-.009,3.1-.044a5.5,5.5,0,0,0,1.826-.35,3.849,3.849,0,0,0,2.2-2.2,5.517,5.517,0,0,0,.35-1.826c.035-.8.044-1.058.044-3.1S15.492,5.227,15.457,4.424ZM14.1,10.569a4.125,4.125,0,0,1-.259,1.4,2.5,2.5,0,0,1-1.429,1.429,4.139,4.139,0,0,1-1.4.259c-.794.035-1.032.044-3.04.044s-2.249-.009-3.04-.044a4.123,4.123,0,0,1-1.4-.259,2.316,2.316,0,0,1-.864-.562,2.34,2.34,0,0,1-.562-.864,4.14,4.14,0,0,1-.259-1.4c-.035-.794-.044-1.032-.044-3.04s.009-2.249.044-3.04a4.123,4.123,0,0,1,.259-1.4,2.287,2.287,0,0,1,.565-.864,2.336,2.336,0,0,1,.864-.561,4.142,4.142,0,0,1,1.4-.259c.794-.035,1.032-.044,3.04-.044s2.249.009,3.04.044a4.125,4.125,0,0,1,1.4.259,2.314,2.314,0,0,1,.864.561,2.339,2.339,0,0,1,.562.864,4.142,4.142,0,0,1,.259,1.4c.035.794.044,1.032.044,3.04S14.137,9.775,14.1,10.569Zm0,0" transform="translate(-0.449 0)" fill="#fff"/>
      <path id="Path_4" data-name="Path 4" d="M128.815,124.5a3.866,3.866,0,1,0,3.866,3.866A3.867,3.867,0,0,0,128.815,124.5Zm0,6.373a2.508,2.508,0,1,1,2.508-2.508A2.508,2.508,0,0,1,128.815,130.873Zm0,0" transform="translate(-121.289 -120.84)" fill="#fff"/>
      <path id="Path_5" data-name="Path 5" d="M364.254,89.5a.9.9,0,1,1-.9-.9A.9.9,0,0,1,364.254,89.5Zm0,0" transform="translate(-351.807 -85.997)" fill="#fff"/>
    </g>
  </g>
</svg>
