<svg xmlns="http://www.w3.org/2000/svg" viewBox="0 0 24 24"><path d="M17,7.16,15.1,5.08a1.56,1.56,0,0,1-.4-1V3.28a1.29,1.29,0,0,0,1-1.23V1.41a1.3,1.3,0,0,0-1.3-1.3H9.64a1.3,1.3,0,0,0-1.3,1.3v.64a1.29,1.29,0,0,0,1,1.23V4a1.56,1.56,0,0,1-.4,1L7,7.15A4.17,4.17,0,0,0,5.93,10V21.25a2.55,2.55,0,0,0,2.45,2.64h7.24a2.55,2.55,0,0,0,2.45-2.64V9.94A4.09,4.09,0,0,0,17,7.16ZM9.34,1.41a.31.31,0,0,1,.3-.3h4.72a.31.31,0,0,1,.3.3v.64a.31.31,0,0,1-.3.3H9.64a.31.31,0,0,1-.3-.3ZM7.74,7.83l1.9-2.08A2.58,2.58,0,0,0,10.3,4V3.35h3.4V4a2.58,2.58,0,0,0,.66,1.72l1.91,2.09a3.1,3.1,0,0,1,.79,2.05,8.94,8.94,0,0,0-2.48-.29,10.5,10.5,0,0,0-2.54.57,12.5,12.5,0,0,1-2.84.62,5.75,5.75,0,0,1-2.27-.6V10A3.15,3.15,0,0,1,7.74,7.83Zm7.88,15.06H8.38a1.56,1.56,0,0,1-1.45-1.64v-10a6.46,6.46,0,0,0,2.2.52h.12a12.87,12.87,0,0,0,3.08-.67,10.58,10.58,0,0,1,2.3-.52,8.18,8.18,0,0,1,2.44.34V21.25A1.56,1.56,0,0,1,15.62,22.89Z" fill="#cb804f"/></svg>