<svg xmlns="http://www.w3.org/2000/svg" width="30.038" height="40" viewBox="0 0 30.038 40">
  <g id="noun_Straight_Razor_957637" data-name="noun_Straight Razor_957637" transform="translate(-26.999 -11.587)">
    <path id="Path_51" data-name="Path 51" d="M53.222,17.692l-11.129,8.69a2.2,2.2,0,0,0-.762,1.372,2.065,2.065,0,0,0,.508,1.525l.559.61-7.114,5.641c.051-6.4.457-14.432,1.982-20.124a2.9,2.9,0,0,0-.457-2.49,2.936,2.936,0,0,0-2.236-1.22l-2.185-.1a2.916,2.916,0,0,0-3.1,2.541c-.661,4.675-1.931,16.821.051,27.95A3.053,3.053,0,0,0,30,43.507a12.109,12.109,0,0,0-3,7.572.546.546,0,0,0,.508.508h0a.509.509,0,0,0,.508-.508,11.248,11.248,0,0,1,2.744-6.911,2.005,2.005,0,0,0,.762.3,2.238,2.238,0,0,0,.813.1,2.707,2.707,0,0,0,1.829-.661,3.085,3.085,0,0,0,1.169-2.49V40.306L55.559,23.841a3.887,3.887,0,0,0,1.474-2.947,4.093,4.093,0,0,0-1.169-3.1A2.072,2.072,0,0,0,53.222,17.692Zm-18.9,23.783a2,2,0,0,1-.762,1.626,2.037,2.037,0,0,1-1.779.356,1.833,1.833,0,0,1-.762-.407h0a2.084,2.084,0,0,1-.661-1.169c-1.982-10.977-.661-22.97-.051-27.594a1.943,1.943,0,0,1,2.033-1.677l2.185.1a1.9,1.9,0,0,1,1.474.813,1.858,1.858,0,0,1,.3,1.626C34.216,22.926,34.165,34.97,34.317,41.475ZM54.9,23.079,35.283,39.035V36.85l8.131-6.5a.819.819,0,0,0,.2-.356.734.734,0,0,0-.1-.356l-.864-1.016a1,1,0,0,1-.254-.762.869.869,0,0,1,.356-.661l11.129-8.69a.937.937,0,0,1,1.27.1,3.3,3.3,0,0,1,.915,2.338A3.219,3.219,0,0,1,54.9,23.079Z" transform="translate(0)" fill="#bea375"/>
  </g>
</svg>
